<?xml version="1.0" encoding="UTF-8" standalone="no"?>
<!DOCTYPE svg PUBLIC "-//W3C//DTD SVG 1.1//EN" "http://www.w3.org/Graphics/SVG/1.1/DTD/svg11.dtd">
<svg width="100%" height="100%" viewBox="0 0 733 174" version="1.1" xmlns="http://www.w3.org/2000/svg" xmlns:xlink="http://www.w3.org/1999/xlink" xml:space="preserve" xmlns:serif="http://www.serif.com/" style="fill-rule:evenodd;clip-rule:evenodd;stroke-linejoin:round;stroke-miterlimit:2;">
    <g id="text_mark_web">
        <g transform="matrix(1,0,0,1,162.326,142.356)">
            <path d="M0,-28.378C0,-17.74 4.296,-12.424 12.892,-12.424L22.718,-12.504L22.746,-45.856L14.934,-45.992C9.912,-45.992 6.168,-44.333 3.701,-41.015C1.232,-37.695 0,-33.483 0,-28.378M41.738,-1.064C41.738,9.913 38.949,18.06 33.377,23.379C27.803,28.695 19.187,31.356 7.531,31.356L-9.082,31.399L-9.123,15.475L7.786,15.273C13.23,15.273 17.082,14.081 19.338,11.7C21.591,9.316 22.688,6.338 22.688,2.592L9.318,2.893C0.042,2.893 -7.064,0.148 -11.998,-5.34C-16.934,-10.828 -19.4,-18.506 -19.4,-28.378C-19.4,-33.313 -18.635,-37.802 -17.104,-41.844C-15.572,-45.885 -13.338,-49.353 -10.402,-52.246C-7.467,-55.139 -4.794,-58.202 -0.538,-59.777L41.439,-59.777L41.738,-1.064Z" style="fill:rgb(98,98,97);fill-rule:nonzero;"/>
        </g>
        <g transform="matrix(1,0,0,1,250.394,131.465)">
            <path d="M0,-32.037C-1.703,-32.462 -3.702,-32.909 -5.999,-33.378C-8.297,-33.844 -10.766,-34.079 -13.402,-34.079C-14.595,-34.079 -16.019,-33.972 -17.679,-33.761C-19.337,-33.547 -20.594,-33.313 -21.443,-33.058L-21.443,18.252L-40.462,18.252L-40.462,-45.311C-37.06,-46.502 -33.038,-47.629 -28.399,-48.694C-23.763,-49.757 -18.593,-50.289 -12.892,-50.289C-11.87,-50.289 -10.638,-50.225 -9.19,-50.098C-7.744,-49.971 -6.298,-49.799 -4.851,-49.588C-3.404,-49.374 -1.958,-49.119 -0.511,-48.821C0.936,-48.522 2.17,-48.161 3.191,-47.736L0,-32.037Z" style="fill:rgb(98,98,97);fill-rule:nonzero;"/>
        </g>
        <g transform="matrix(1,0,0,1,338.098,136.953)">
            <path d="M0,-41.61C-1.536,-39.907 -3.602,-37.609 -6.202,-34.717C-8.803,-31.824 -11.597,-28.632 -14.581,-25.144C-17.566,-21.654 -20.571,-17.997 -23.599,-14.168C-26.626,-10.339 -29.375,-6.637 -31.848,-3.063L0.638,-3.063L0.638,12.764L-54.884,12.764L-54.884,1.532C-53.097,-1.532 -50.949,-4.828 -48.438,-8.36C-45.93,-11.89 -43.291,-15.444 -40.524,-19.018C-37.761,-22.591 -35.017,-26.058 -32.292,-29.421C-29.57,-32.781 -27.06,-35.822 -24.762,-38.547L-53.353,-38.547L-53.353,-54.374L0,-54.374L0,-41.61Z" style="fill:rgb(98,98,97);fill-rule:nonzero;"/>
        </g>
        <g transform="matrix(1,0,0,1,397.917,136.953)">
            <path d="M0,-41.61C-1.536,-39.907 -3.602,-37.609 -6.202,-34.717C-8.803,-31.824 -11.597,-28.632 -14.581,-25.144C-17.566,-21.654 -20.571,-17.997 -23.599,-14.168C-26.626,-10.339 -29.375,-6.637 -31.848,-3.063L0.638,-3.063L0.638,12.764L-54.884,12.764L-54.884,1.532C-53.098,-1.532 -50.949,-4.828 -48.438,-8.36C-45.93,-11.89 -43.291,-15.444 -40.525,-19.018C-37.761,-22.591 -35.017,-26.058 -32.292,-29.421C-29.57,-32.781 -27.06,-35.822 -24.762,-38.547L-53.353,-38.547L-53.353,-54.374L0,-54.374L0,-41.61Z" style="fill:rgb(98,98,97);fill-rule:nonzero;"/>
        </g>
        <g transform="matrix(1.01064e-05,-1,-1,-1.01064e-05,464.334,109.686)">
            <path d="M-39.996,59.015L58.951,59.015L59.016,39.996L-39.995,39.998L-39.996,59.015Z" style="fill:rgb(98,98,97);fill-rule:nonzero;"/>
        </g>
        <g transform="matrix(-1,0,0,1,534.607,52.296)">
            <rect x="257.794" y="30.283" width="19.019" height="67.138" style="fill:rgb(98,98,97);"/>
        </g>
        <g transform="matrix(-1,0,0,1,534.607,-56.704)">
            <rect x="257.794" y="110.283" width="19.019" height="16.138" style="fill:rgb(98,98,97);"/>
        </g>
        <g transform="matrix(-1,0,0,1,977.368,103.224)">
            <rect x="479.175" y="30.319" width="19.018" height="16.138" style="fill:rgb(72,137,255);"/>
        </g>
        <g transform="matrix(1,0,0,1,449.253,113.988)">
            <path d="M0,28.526L-19.528,-31.409L-3.393,-31.409L7.86,4.458C8.973,1.385 19.004,-31.409 19.004,-31.409L38.742,-31.409L8.435,59.935L-10.219,59.935L0,28.526Z" style="fill:rgb(98,98,97);fill-rule:nonzero;"/>
        </g>
        <g transform="matrix(1,0,0,1,566.325,109.955)">
            <path d="M0,12.09L6.793,-27.672L26.924,-27.672L11.031,39.762L-6.731,39.762L-17.887,-0.25L-29.105,39.762L-46.867,39.762L-62.76,-27.672L-42.629,-27.672L-35.961,13.026L-25.241,-27.672L-10.595,-27.672L0,12.09Z" style="fill:rgb(98,98,97);fill-rule:nonzero;"/>
        </g>
        <g transform="matrix(1,0,0,1,631.017,134.759)">
            <path d="M0,-37.518C-6.149,-37.518 -9.807,-33.446 -10.969,-25.303L10.221,-25.303L10.221,-26.923C10.304,-30.289 9.451,-32.896 7.665,-34.746C5.879,-36.593 3.323,-37.518 0,-37.518M2.368,16.204C-7.978,16.204 -16.351,13.119 -22.748,6.949C-29.147,0.779 -32.346,-7.249 -32.346,-17.139L-32.346,-18.884C-32.346,-25.781 -31.068,-31.868 -28.513,-37.145C-25.958,-42.42 -22.229,-46.502 -17.326,-49.391C-12.424,-52.279 -6.606,-53.722 0.124,-53.722C9.598,-53.722 17.076,-50.783 22.561,-44.904C28.045,-39.024 30.787,-30.829 30.787,-20.317L30.787,-12.153L-10.969,-12.153C-10.222,-8.372 -8.58,-5.401 -6.046,-3.241C-3.512,-1.08 -0.229,0 3.802,0C10.448,0 15.643,-2.327 19.382,-6.98L28.979,4.363C26.362,7.977 22.654,10.855 17.855,12.995C13.057,15.133 7.894,16.204 2.368,16.204" style="fill:rgb(98,98,97);fill-rule:nonzero;"/>
        </g>
        <g transform="matrix(1,0,0,1,711.786,88.7297)">
            <path d="M0,26.492C0,20.022 -0.861,15.407 -2.586,12.648C-4.311,9.891 -6.959,8.512 -10.531,8.512C-15.269,8.512 -20.379,8.925 -20.379,8.925L-20.379,45.679C-20.379,45.679 -15.269,46.029 -10.408,46.029C-5.463,46.029 -2.326,43.624 -0.996,38.811C-0.332,36.447 0,32.341 0,26.492M21.066,27.831C21.066,38.884 18.781,47.381 14.211,53.321C9.639,59.263 3.199,61.233 -5.109,61.233L-22.561,60.987L-41.382,60.987L-41.382,-34.741L-20.379,-34.741L-20.379,-6.025C-20.379,-6.025 -11.426,-5.693 -5.234,-5.693C3.158,-5.693 9.639,-4.68 14.211,1.344C18.781,7.369 21.066,15.845 21.066,26.771L21.066,27.831Z" style="fill:rgb(98,98,97);fill-rule:nonzero;"/>
        </g>
    </g>
    <g id="design_mark">
        <g transform="matrix(1,0,0,1,0,111.825)">
            <path d="M0,-63.927L81.114,44.348L137.734,-34.422L39.064,-108.275L0,-63.927ZM16.728,-63.652L41.546,-90.536L119.811,-30.929L80.241,21.462L16.728,-63.652Z" style="fill:rgb(72,137,255);fill-rule:nonzero;"/>
        </g>
        <g transform="matrix(1,0,0,1,112.274,131.43)">
            <path d="M0,-128.386L-4.918,-115.61L-15.258,-115.61L-44.855,-99.433L-65.949,-71.583L-74.222,-54.43L-32.038,2.344L7.586,-50.293L9.192,-62.713L37.914,-72.318L43.522,-73.972L49.726,-80.591L48.715,-83.899L32.354,-95.526L32.354,-102.328L12.454,-119.332L12.454,-127.421L7.078,-130.73L0,-128.386Z" style="fill:rgb(255,204,54);fill-rule:nonzero;"/>
        </g>
    </g>
</svg>
